# MagicaVoxel @ Ephtracy

# material
mtllib Atm01.mtl
usemtl palette

# normals
vn -1 0 0
vn 1 0 0
vn 0 0 1
vn 0 0 -1
vn 0 -1 0
vn 0 1 0

# texcoords
vt 0.849609 0.5
vt 0.982422 0.5
vt 0.986328 0.5
vt 0.990234 0.5

# verts
v -9 0 8
v -9 0 -8
v -9 1 7
v -9 1 -7
v -9 27 7
v -9 27 -7
v -9 28 8
v -9 28 -8
v -6 13 7
v -6 13 5
v -6 14 7
v -6 14 5
v -6 15 6
v -6 15 5
v -6 16 6
v -6 16 5
v -6 17 6
v -6 17 5
v -6 24 6
v -6 24 5
v -4 14 -7
v -4 14 -8
v -4 16 -7
v -4 16 -8
v 3 17 6
v 3 17 5
v 3 22 6
v 3 22 5
v 3 23 6
v 3 23 5
v 3 24 6
v 3 24 5
v 4 6 8
v 4 6 7
v 4 7 8
v 4 7 7
v 7 0 8
v 7 0 7
v 7 12 8
v 7 12 7
v 7 13 8
v 7 13 5
v 7 25 8
v 7 25 5
v 7 26 8
v 7 26 7
v 7 27 8
v 7 27 7
v -7 0 8
v -7 0 7
v -7 12 8
v -7 12 7
v -7 13 8
v -7 13 5
v -7 25 8
v -7 25 5
v -7 26 8
v -7 26 7
v -7 27 8
v -7 27 7
v -6 14 -7
v -6 14 -8
v -6 16 -7
v -6 16 -8
v 2 13 7
v 2 13 5
v 2 14 7
v 2 14 5
v 2 17 6
v 2 17 5
v 2 24 6
v 2 24 5
v 6 6 8
v 6 6 7
v 6 7 8
v 6 7 7
v 6 15 6
v 6 15 5
v 6 16 6
v 6 16 5
v 6 17 6
v 6 17 5
v 6 22 6
v 6 22 5
v 6 23 6
v 6 23 5
v 6 24 6
v 6 24 5
v 9 0 8
v 9 0 -8
v 9 1 7
v 9 1 -7
v 9 27 7
v 9 27 -7
v 9 28 8
v 9 28 -8
v -9 0 8
v -9 28 8
v -7 0 8
v -7 12 8
v -7 13 8
v -7 25 8
v -7 26 8
v -7 27 8
v 4 6 8
v 4 7 8
v 6 6 8
v 6 7 8
v 7 0 8
v 7 12 8
v 7 13 8
v 7 25 8
v 7 26 8
v 7 27 8
v 9 0 8
v 9 28 8
v -7 0 7
v -7 12 7
v -7 26 7
v -7 27 7
v -6 13 7
v -6 14 7
v 2 13 7
v 2 14 7
v 4 6 7
v 4 7 7
v 6 6 7
v 6 7 7
v 7 0 7
v 7 12 7
v 7 26 7
v 7 27 7
v -6 15 6
v -6 16 6
v -6 17 6
v -6 24 6
v 2 17 6
v 2 24 6
v 3 17 6
v 3 22 6
v 3 23 6
v 3 24 6
v 6 15 6
v 6 16 6
v 6 17 6
v 6 22 6
v 6 23 6
v 6 24 6
v -7 13 5
v -7 25 5
v -6 13 5
v -6 14 5
v -6 15 5
v -6 16 5
v -6 17 5
v -6 24 5
v 2 13 5
v 2 14 5
v 2 17 5
v 2 24 5
v 3 17 5
v 3 22 5
v 3 23 5
v 3 24 5
v 6 15 5
v 6 16 5
v 6 17 5
v 6 22 5
v 6 23 5
v 6 24 5
v 7 13 5
v 7 25 5
v -6 14 -7
v -6 16 -7
v -4 14 -7
v -4 16 -7
v -9 0 -8
v -9 28 -8
v -7 1 -8
v -7 27 -8
v -6 14 -8
v -6 16 -8
v -4 14 -8
v -4 16 -8
v 7 1 -8
v 7 27 -8
v 9 0 -8
v 9 28 -8
v -9 0 8
v -7 0 8
v 7 0 8
v 9 0 8
v -7 0 7
v 7 0 7
v -9 0 -8
v 9 0 -8
v 4 6 8
v 6 6 8
v 4 6 7
v 6 6 7
v -7 12 8
v 7 12 8
v -7 12 7
v 7 12 7
v -6 15 6
v 6 15 6
v -6 15 5
v 6 15 5
v -6 16 -7
v -4 16 -7
v -6 16 -8
v -4 16 -8
v -6 17 6
v 2 17 6
v 3 17 6
v 6 17 6
v -6 17 5
v 2 17 5
v 3 17 5
v 6 17 5
v 3 23 6
v 6 23 6
v 3 23 5
v 6 23 5
v -7 25 8
v 7 25 8
v -7 25 5
v 7 25 5
v -7 27 8
v 7 27 8
v -7 27 7
v 7 27 7
v 4 7 8
v 6 7 8
v 4 7 7
v 6 7 7
v -7 13 8
v 7 13 8
v -6 13 7
v 2 13 7
v -7 13 5
v -6 13 5
v 2 13 5
v 7 13 5
v -6 14 7
v 2 14 7
v -6 14 5
v 2 14 5
v -6 14 -7
v -4 14 -7
v -6 14 -8
v -4 14 -8
v -6 16 6
v 6 16 6
v -6 16 5
v 6 16 5
v 3 22 6
v 6 22 6
v 3 22 5
v 6 22 5
v -6 24 6
v 2 24 6
v 3 24 6
v 6 24 6
v -6 24 5
v 2 24 5
v 3 24 5
v 6 24 5
v -7 26 8
v 7 26 8
v -7 26 7
v 7 26 7
v -9 28 8
v 9 28 8
v -9 28 -8
v 9 28 -8

# faces
f 3/4/1 2/4/1 1/4/1
f 4/4/1 2/4/1 3/4/1
f 5/4/1 3/4/1 1/4/1
f 5/2/1 4/2/1 3/2/1
f 6/4/1 2/4/1 4/4/1
f 6/2/1 4/2/1 5/2/1
f 7/4/1 5/4/1 1/4/1
f 7/4/1 6/4/1 5/4/1
f 8/4/1 2/4/1 6/4/1
f 8/4/1 6/4/1 7/4/1
f 11/3/1 10/3/1 9/3/1
f 12/3/1 10/3/1 11/3/1
f 15/3/1 14/3/1 13/3/1
f 16/3/1 14/3/1 15/3/1
f 19/1/1 18/1/1 17/1/1
f 20/1/1 18/1/1 19/1/1
f 23/2/1 22/2/1 21/2/1
f 24/2/1 22/2/1 23/2/1
f 27/3/1 26/3/1 25/3/1
f 28/3/1 26/3/1 27/3/1
f 31/3/1 30/3/1 29/3/1
f 32/3/1 30/3/1 31/3/1
f 35/3/1 34/3/1 33/3/1
f 36/3/1 34/3/1 35/3/1
f 39/4/1 38/4/1 37/4/1
f 40/4/1 38/4/1 39/4/1
f 43/4/1 42/4/1 41/4/1
f 44/4/1 42/4/1 43/4/1
f 47/4/1 46/4/1 45/4/1
f 48/4/1 46/4/1 47/4/1
f 49/4/2 50/4/2 51/4/2
f 51/4/2 50/4/2 52/4/2
f 53/4/2 54/4/2 55/4/2
f 55/4/2 54/4/2 56/4/2
f 57/4/2 58/4/2 59/4/2
f 59/4/2 58/4/2 60/4/2
f 61/2/2 62/2/2 63/2/2
f 63/2/2 62/2/2 64/2/2
f 65/3/2 66/3/2 67/3/2
f 67/3/2 66/3/2 68/3/2
f 69/1/2 70/1/2 71/1/2
f 71/1/2 70/1/2 72/1/2
f 73/3/2 74/3/2 75/3/2
f 75/3/2 74/3/2 76/3/2
f 77/3/2 78/3/2 79/3/2
f 79/3/2 78/3/2 80/3/2
f 81/3/2 82/3/2 83/3/2
f 83/3/2 82/3/2 84/3/2
f 85/3/2 86/3/2 87/3/2
f 87/3/2 86/3/2 88/3/2
f 89/4/2 90/4/2 91/4/2
f 91/4/2 90/4/2 92/4/2
f 89/4/2 91/4/2 93/4/2
f 91/2/2 92/2/2 93/2/2
f 92/4/2 90/4/2 94/4/2
f 93/2/2 92/2/2 94/2/2
f 89/4/2 93/4/2 95/4/2
f 93/4/2 94/4/2 95/4/2
f 94/4/2 90/4/2 96/4/2
f 95/4/2 94/4/2 96/4/2
f 99/4/3 98/4/3 97/4/3
f 100/4/3 98/4/3 99/4/3
f 101/4/3 98/4/3 100/4/3
f 102/4/3 98/4/3 101/4/3
f 103/4/3 98/4/3 102/4/3
f 104/4/3 98/4/3 103/4/3
f 107/3/3 106/3/3 105/3/3
f 108/3/3 106/3/3 107/3/3
f 110/4/3 101/4/3 100/4/3
f 111/4/3 101/4/3 110/4/3
f 112/4/3 103/4/3 102/4/3
f 113/4/3 103/4/3 112/4/3
f 114/4/3 98/4/3 104/4/3
f 115/4/3 113/4/3 112/4/3
f 115/4/3 114/4/3 113/4/3
f 115/4/3 111/4/3 110/4/3
f 115/4/3 110/4/3 109/4/3
f 115/4/3 112/4/3 111/4/3
f 116/4/3 98/4/3 114/4/3
f 116/4/3 114/4/3 115/4/3
f 123/3/3 122/3/3 121/3/3
f 124/3/3 122/3/3 123/3/3
f 125/4/3 118/4/3 117/4/3
f 126/4/3 118/4/3 125/4/3
f 127/4/3 125/4/3 117/4/3
f 128/4/3 118/4/3 126/4/3
f 129/4/3 127/4/3 117/4/3
f 129/4/3 128/4/3 127/4/3
f 130/4/3 118/4/3 128/4/3
f 130/4/3 128/4/3 129/4/3
f 131/3/3 120/3/3 119/3/3
f 132/3/3 120/3/3 131/3/3
f 137/1/3 136/1/3 135/1/3
f 138/1/3 136/1/3 137/1/3
f 143/3/3 134/3/3 133/3/3
f 144/3/3 134/3/3 143/3/3
f 145/3/3 140/3/3 139/3/3
f 146/3/3 140/3/3 145/3/3
f 147/3/3 142/3/3 141/3/3
f 148/3/3 142/3/3 147/3/3
f 151/4/3 150/4/3 149/4/3
f 152/4/3 150/4/3 151/4/3
f 153/4/3 150/4/3 152/4/3
f 154/4/3 150/4/3 153/4/3
f 155/4/3 150/4/3 154/4/3
f 156/4/3 150/4/3 155/4/3
f 158/4/3 153/4/3 152/4/3
f 159/4/3 155/4/3 154/4/3
f 160/4/3 150/4/3 156/4/3
f 161/4/3 159/4/3 154/4/3
f 161/4/3 160/4/3 159/4/3
f 162/4/3 160/4/3 161/4/3
f 163/4/3 160/4/3 162/4/3
f 164/4/3 150/4/3 160/4/3
f 164/4/3 160/4/3 163/4/3
f 165/4/3 158/4/3 157/4/3
f 165/4/3 153/4/3 158/4/3
f 166/4/3 161/4/3 154/4/3
f 167/4/3 161/4/3 166/4/3
f 168/4/3 163/4/3 162/4/3
f 169/4/3 163/4/3 168/4/3
f 170/4/3 150/4/3 164/4/3
f 171/4/3 167/4/3 166/4/3
f 171/4/3 170/4/3 169/4/3
f 171/4/3 169/4/3 168/4/3
f 171/4/3 165/4/3 157/4/3
f 171/4/3 168/4/3 167/4/3
f 171/4/3 166/4/3 165/4/3
f 172/4/3 150/4/3 170/4/3
f 172/4/3 170/4/3 171/4/3
f 173/3/4 174/3/4 175/3/4
f 175/3/4 174/3/4 176/3/4
f 177/4/4 178/4/4 179/4/4
f 179/4/4 178/4/4 180/4/4
f 179/2/4 180/2/4 181/2/4
f 181/2/4 180/2/4 182/2/4
f 179/2/4 181/2/4 183/2/4
f 182/2/4 180/2/4 184/2/4
f 177/4/4 179/4/4 185/4/4
f 183/2/4 184/2/4 185/2/4
f 179/2/4 183/2/4 185/2/4
f 184/2/4 180/2/4 186/2/4
f 185/2/4 184/2/4 186/2/4
f 180/4/4 178/4/4 186/4/4
f 177/4/4 185/4/4 187/4/4
f 185/4/4 186/4/4 187/4/4
f 186/4/4 178/4/4 188/4/4
f 187/4/4 186/4/4 188/4/4
f 193/4/5 190/4/5 189/4/5
f 194/4/5 192/4/5 191/4/5
f 195/4/5 193/4/5 189/4/5
f 195/4/5 194/4/5 193/4/5
f 196/4/5 192/4/5 194/4/5
f 196/4/5 194/4/5 195/4/5
f 199/3/5 198/3/5 197/3/5
f 200/3/5 198/3/5 199/3/5
f 203/4/5 202/4/5 201/4/5
f 204/4/5 202/4/5 203/4/5
f 207/3/5 206/3/5 205/3/5
f 208/3/5 206/3/5 207/3/5
f 211/2/5 210/2/5 209/2/5
f 212/2/5 210/2/5 211/2/5
f 217/1/5 214/1/5 213/1/5
f 218/1/5 214/1/5 217/1/5
f 219/3/5 216/3/5 215/3/5
f 220/3/5 216/3/5 219/3/5
f 223/3/5 222/3/5 221/3/5
f 224/3/5 222/3/5 223/3/5
f 227/4/5 226/4/5 225/4/5
f 228/4/5 226/4/5 227/4/5
f 231/4/5 230/4/5 229/4/5
f 232/4/5 230/4/5 231/4/5
f 233/3/6 234/3/6 235/3/6
f 235/3/6 234/3/6 236/3/6
f 237/4/6 238/4/6 239/4/6
f 239/4/6 238/4/6 240/4/6
f 237/4/6 239/4/6 241/4/6
f 241/4/6 239/4/6 242/4/6
f 240/4/6 238/4/6 243/4/6
f 243/4/6 238/4/6 244/4/6
f 245/3/6 246/3/6 247/3/6
f 247/3/6 246/3/6 248/3/6
f 249/2/6 250/2/6 251/2/6
f 251/2/6 250/2/6 252/2/6
f 253/3/6 254/3/6 255/3/6
f 255/3/6 254/3/6 256/3/6
f 257/3/6 258/3/6 259/3/6
f 259/3/6 258/3/6 260/3/6
f 261/1/6 262/1/6 265/1/6
f 265/1/6 262/1/6 266/1/6
f 263/3/6 264/3/6 267/3/6
f 267/3/6 264/3/6 268/3/6
f 269/4/6 270/4/6 271/4/6
f 271/4/6 270/4/6 272/4/6
f 273/4/6 274/4/6 275/4/6
f 275/4/6 274/4/6 276/4/6
