# MagicaVoxel @ Ephtracy

# material
mtllib Phone01.mtl
usemtl palette

# normals
vn -1 0 0
vn 1 0 0
vn 0 0 1
vn 0 0 -1
vn 0 -1 0
vn 0 1 0

# texcoords
vt 0.814453 0.5
vt 0.849609 0.5
vt 0.908203 0.5
vt 0.986328 0.5
vt 0.990234 0.5

# verts
v -4 0 4
v -4 0 -4
v -4 1 3
v -4 1 -3
v -4 6 3
v -4 6 -3
v -4 7 3
v -4 7 -3
v -4 11 3
v -4 11 -3
v -4 12 4
v -4 12 -4
v -3 1 3
v -3 1 -3
v -3 6 3
v -3 6 -3
v -3 7 3
v -3 7 -3
v -3 11 3
v -3 11 -3
v -3 12 4
v -3 12 -4
v -3 13 4
v -3 13 -4
v -2 5 4
v -2 5 3
v -2 6 4
v -2 6 3
v -2 13 4
v -2 13 -4
v -2 14 4
v -2 14 -4
v 1 5 -3
v 1 5 -4
v 1 6 -3
v 1 6 -4
v 2 11 4
v 2 11 3
v 2 11 -3
v 2 11 -4
v 2 12 4
v 2 12 3
v 2 12 -3
v 2 12 -4
v 3 0 4
v 3 0 3
v 3 0 -3
v 3 0 -4
v 3 10 4
v 3 10 3
v 3 10 -3
v 3 10 -4
v -3 0 4
v -3 0 3
v -3 0 -3
v -3 0 -4
v -3 10 4
v -3 10 3
v -3 10 -3
v -3 10 -4
v -2 11 4
v -2 11 3
v -2 11 -3
v -2 11 -4
v -2 12 4
v -2 12 3
v -2 12 -3
v -2 12 -4
v -1 5 4
v -1 5 3
v -1 6 4
v -1 6 3
v 2 5 -3
v 2 5 -4
v 2 6 -3
v 2 6 -4
v 2 13 4
v 2 13 -4
v 2 14 4
v 2 14 -4
v 3 1 3
v 3 1 -3
v 3 6 3
v 3 6 -3
v 3 7 3
v 3 7 -3
v 3 11 3
v 3 11 -3
v 3 12 4
v 3 12 -4
v 3 13 4
v 3 13 -4
v 4 0 4
v 4 0 -4
v 4 1 3
v 4 1 -3
v 4 6 3
v 4 6 -3
v 4 7 3
v 4 7 -3
v 4 11 3
v 4 11 -3
v 4 12 4
v 4 12 -4
v -4 0 4
v -4 12 4
v -3 0 4
v -3 10 4
v -3 12 4
v -3 13 4
v -2 5 4
v -2 6 4
v -2 11 4
v -2 12 4
v -2 13 4
v -2 14 4
v -1 5 4
v -1 6 4
v 2 11 4
v 2 12 4
v 2 13 4
v 2 14 4
v 3 0 4
v 3 10 4
v 3 12 4
v 3 13 4
v 4 0 4
v 4 12 4
v -3 0 3
v -3 10 3
v -2 5 3
v -2 6 3
v -2 11 3
v -2 12 3
v -1 5 3
v -1 6 3
v 2 11 3
v 2 12 3
v 3 0 3
v 3 10 3
v -4 1 -3
v -4 6 -3
v -4 7 -3
v -4 11 -3
v -3 1 -3
v -3 6 -3
v -3 7 -3
v -3 11 -3
v 3 1 -3
v 3 6 -3
v 3 7 -3
v 3 11 -3
v 4 1 -3
v 4 6 -3
v 4 7 -3
v 4 11 -3
v -4 1 3
v -4 6 3
v -4 7 3
v -4 11 3
v -3 1 3
v -3 6 3
v -3 7 3
v -3 11 3
v 3 1 3
v 3 6 3
v 3 7 3
v 3 11 3
v 4 1 3
v 4 6 3
v 4 7 3
v 4 11 3
v -3 0 -3
v -3 10 -3
v -2 11 -3
v -2 12 -3
v 1 5 -3
v 1 6 -3
v 2 5 -3
v 2 6 -3
v 2 11 -3
v 2 12 -3
v 3 0 -3
v 3 10 -3
v -4 0 -4
v -4 12 -4
v -3 0 -4
v -3 10 -4
v -3 12 -4
v -3 13 -4
v -2 11 -4
v -2 12 -4
v -2 13 -4
v -2 14 -4
v 1 5 -4
v 1 6 -4
v 2 5 -4
v 2 6 -4
v 2 11 -4
v 2 12 -4
v 2 13 -4
v 2 14 -4
v 3 0 -4
v 3 10 -4
v 3 12 -4
v 3 13 -4
v 4 0 -4
v 4 12 -4
v -4 0 4
v -3 0 4
v 3 0 4
v 4 0 4
v -3 0 3
v 3 0 3
v -3 0 2
v 3 0 2
v -3 0 -2
v 3 0 -2
v -3 0 -3
v 3 0 -3
v -4 0 -4
v -3 0 -4
v 3 0 -4
v 4 0 -4
v -2 5 4
v -1 5 4
v -2 5 3
v -1 5 3
v 1 5 -3
v 2 5 -3
v 1 5 -4
v 2 5 -4
v -4 6 3
v -3 6 3
v 3 6 3
v 4 6 3
v -4 6 -3
v -3 6 -3
v 3 6 -3
v 4 6 -3
v -3 10 4
v 3 10 4
v -3 10 3
v 3 10 3
v -3 10 -3
v 3 10 -3
v -3 10 -4
v 3 10 -4
v -4 11 3
v -3 11 3
v 3 11 3
v 4 11 3
v -4 11 -3
v -3 11 -3
v 3 11 -3
v 4 11 -3
v -2 12 4
v 2 12 4
v -2 12 3
v 2 12 3
v -2 12 -3
v 2 12 -3
v -2 12 -4
v 2 12 -4
v -4 1 3
v -3 1 3
v 3 1 3
v 4 1 3
v -4 1 -3
v -3 1 -3
v 3 1 -3
v 4 1 -3
v -2 6 4
v -1 6 4
v -2 6 3
v -1 6 3
v 1 6 -3
v 2 6 -3
v 1 6 -4
v 2 6 -4
v -4 7 3
v -3 7 3
v 3 7 3
v 4 7 3
v -4 7 -3
v -3 7 -3
v 3 7 -3
v 4 7 -3
v -2 11 4
v 2 11 4
v -2 11 3
v 2 11 3
v -2 11 -3
v 2 11 -3
v -2 11 -4
v 2 11 -4
v -4 12 4
v -3 12 4
v 3 12 4
v 4 12 4
v -4 12 -4
v -3 12 -4
v 3 12 -4
v 4 12 -4
v -3 13 4
v -2 13 4
v 2 13 4
v 3 13 4
v -3 13 -4
v -2 13 -4
v 2 13 -4
v 3 13 -4
v -2 14 4
v 2 14 4
v -2 14 -4
v 2 14 -4

# faces
f 3/1/1 2/1/1 1/1/1
f 4/1/1 2/1/1 3/1/1
f 5/1/1 3/1/1 1/1/1
f 6/1/1 2/1/1 4/1/1
f 7/1/1 5/1/1 1/1/1
f 7/1/1 6/1/1 5/1/1
f 8/1/1 2/1/1 6/1/1
f 8/1/1 6/1/1 7/1/1
f 9/1/1 7/1/1 1/1/1
f 10/1/1 2/1/1 8/1/1
f 11/1/1 9/1/1 1/1/1
f 11/1/1 10/1/1 9/1/1
f 12/1/1 2/1/1 10/1/1
f 12/1/1 10/1/1 11/1/1
f 15/2/1 14/2/1 13/2/1
f 16/2/1 14/2/1 15/2/1
f 19/2/1 18/2/1 17/2/1
f 20/2/1 18/2/1 19/2/1
f 23/1/1 22/1/1 21/1/1
f 24/1/1 22/1/1 23/1/1
f 27/4/1 26/4/1 25/4/1
f 28/4/1 26/4/1 27/4/1
f 31/1/1 30/1/1 29/1/1
f 32/1/1 30/1/1 31/1/1
f 35/4/1 34/4/1 33/4/1
f 36/4/1 34/4/1 35/4/1
f 41/1/1 38/1/1 37/1/1
f 42/1/1 38/1/1 41/1/1
f 43/1/1 40/1/1 39/1/1
f 44/1/1 40/1/1 43/1/1
f 49/1/1 46/1/1 45/1/1
f 50/1/1 46/1/1 49/1/1
f 51/1/1 48/1/1 47/1/1
f 52/1/1 48/1/1 51/1/1
f 53/1/2 54/1/2 57/1/2
f 57/1/2 54/1/2 58/1/2
f 55/1/2 56/1/2 59/1/2
f 59/1/2 56/1/2 60/1/2
f 61/1/2 62/1/2 65/1/2
f 65/1/2 62/1/2 66/1/2
f 63/1/2 64/1/2 67/1/2
f 67/1/2 64/1/2 68/1/2
f 69/4/2 70/4/2 71/4/2
f 71/4/2 70/4/2 72/4/2
f 73/4/2 74/4/2 75/4/2
f 75/4/2 74/4/2 76/4/2
f 77/1/2 78/1/2 79/1/2
f 79/1/2 78/1/2 80/1/2
f 81/2/2 82/2/2 83/2/2
f 83/2/2 82/2/2 84/2/2
f 85/2/2 86/2/2 87/2/2
f 87/2/2 86/2/2 88/2/2
f 89/1/2 90/1/2 91/1/2
f 91/1/2 90/1/2 92/1/2
f 93/1/2 94/1/2 95/1/2
f 95/1/2 94/1/2 96/1/2
f 93/1/2 95/1/2 97/1/2
f 96/1/2 94/1/2 98/1/2
f 93/1/2 97/1/2 99/1/2
f 97/1/2 98/1/2 99/1/2
f 98/1/2 94/1/2 100/1/2
f 99/1/2 98/1/2 100/1/2
f 93/1/2 99/1/2 101/1/2
f 100/1/2 94/1/2 102/1/2
f 93/1/2 101/1/2 103/1/2
f 101/1/2 102/1/2 103/1/2
f 102/1/2 94/1/2 104/1/2
f 103/1/2 102/1/2 104/1/2
f 107/1/3 106/1/3 105/1/3
f 108/1/3 106/1/3 107/1/3
f 109/1/3 106/1/3 108/1/3
f 113/1/3 110/1/3 109/1/3
f 113/1/3 109/1/3 108/1/3
f 114/1/3 110/1/3 113/1/3
f 115/1/3 110/1/3 114/1/3
f 117/4/3 112/4/3 111/4/3
f 118/4/3 112/4/3 117/4/3
f 119/1/3 113/1/3 108/1/3
f 120/1/3 116/1/3 115/1/3
f 120/1/3 115/1/3 114/1/3
f 121/1/3 116/1/3 120/1/3
f 122/1/3 116/1/3 121/1/3
f 124/1/3 119/1/3 108/1/3
f 124/1/3 120/1/3 119/1/3
f 124/1/3 121/1/3 120/1/3
f 125/1/3 121/1/3 124/1/3
f 126/1/3 121/1/3 125/1/3
f 127/1/3 124/1/3 123/1/3
f 127/1/3 125/1/3 124/1/3
f 128/1/3 125/1/3 127/1/3
f 131/2/3 130/2/3 129/2/3
f 132/2/3 130/2/3 131/2/3
f 135/2/3 131/2/3 129/2/3
f 136/2/3 130/2/3 132/2/3
f 137/3/3 134/3/3 133/3/3
f 138/3/3 134/3/3 137/3/3
f 139/2/3 136/2/3 135/2/3
f 139/2/3 135/2/3 129/2/3
f 140/2/3 130/2/3 136/2/3
f 140/2/3 136/2/3 139/2/3
f 145/1/3 142/1/3 141/1/3
f 146/1/3 142/1/3 145/1/3
f 147/1/3 144/1/3 143/1/3
f 148/1/3 144/1/3 147/1/3
f 153/1/3 150/1/3 149/1/3
f 154/1/3 150/1/3 153/1/3
f 155/1/3 152/1/3 151/1/3
f 156/1/3 152/1/3 155/1/3
f 157/1/4 158/1/4 161/1/4
f 161/1/4 158/1/4 162/1/4
f 159/1/4 160/1/4 163/1/4
f 163/1/4 160/1/4 164/1/4
f 165/1/4 166/1/4 169/1/4
f 169/1/4 166/1/4 170/1/4
f 167/1/4 168/1/4 171/1/4
f 171/1/4 168/1/4 172/1/4
f 173/2/4 174/2/4 177/2/4
f 177/2/4 174/2/4 178/2/4
f 173/2/4 177/2/4 179/2/4
f 178/2/4 174/2/4 180/2/4
f 175/3/4 176/3/4 181/3/4
f 181/3/4 176/3/4 182/3/4
f 179/2/4 180/2/4 183/2/4
f 173/2/4 179/2/4 183/2/4
f 180/2/4 174/2/4 184/2/4
f 183/2/4 180/2/4 184/2/4
f 185/1/4 186/1/4 187/1/4
f 187/1/4 186/1/4 188/1/4
f 188/1/4 186/1/4 189/1/4
f 189/1/4 190/1/4 191/1/4
f 188/1/4 189/1/4 191/1/4
f 191/1/4 190/1/4 192/1/4
f 192/1/4 190/1/4 193/1/4
f 195/4/4 196/4/4 197/4/4
f 197/4/4 196/4/4 198/4/4
f 188/1/4 191/1/4 199/1/4
f 193/1/4 194/1/4 200/1/4
f 192/1/4 193/1/4 200/1/4
f 200/1/4 194/1/4 201/1/4
f 201/1/4 194/1/4 202/1/4
f 188/1/4 199/1/4 204/1/4
f 200/1/4 201/1/4 204/1/4
f 199/1/4 200/1/4 204/1/4
f 204/1/4 201/1/4 205/1/4
f 205/1/4 201/1/4 206/1/4
f 203/1/4 204/1/4 207/1/4
f 204/1/4 205/1/4 207/1/4
f 207/1/4 205/1/4 208/1/4
f 213/1/5 210/1/5 209/1/5
f 214/1/5 212/1/5 211/1/5
f 215/1/5 213/1/5 209/1/5
f 215/2/5 214/2/5 213/2/5
f 216/1/5 212/1/5 214/1/5
f 216/2/5 214/2/5 215/2/5
f 217/1/5 215/1/5 209/1/5
f 217/5/5 216/5/5 215/5/5
f 218/1/5 212/1/5 216/1/5
f 218/5/5 216/5/5 217/5/5
f 219/1/5 217/1/5 209/1/5
f 219/2/5 218/2/5 217/2/5
f 220/1/5 212/1/5 218/1/5
f 220/2/5 218/2/5 219/2/5
f 221/1/5 219/1/5 209/1/5
f 222/1/5 219/1/5 221/1/5
f 223/1/5 212/1/5 220/1/5
f 224/1/5 212/1/5 223/1/5
f 227/4/5 226/4/5 225/4/5
f 228/4/5 226/4/5 227/4/5
f 231/4/5 230/4/5 229/4/5
f 232/4/5 230/4/5 231/4/5
f 237/1/5 234/1/5 233/1/5
f 238/1/5 234/1/5 237/1/5
f 239/1/5 236/1/5 235/1/5
f 240/1/5 236/1/5 239/1/5
f 243/1/5 242/1/5 241/1/5
f 244/1/5 242/1/5 243/1/5
f 247/1/5 246/1/5 245/1/5
f 248/1/5 246/1/5 247/1/5
f 253/1/5 250/1/5 249/1/5
f 254/1/5 250/1/5 253/1/5
f 255/1/5 252/1/5 251/1/5
f 256/1/5 252/1/5 255/1/5
f 259/1/5 258/1/5 257/1/5
f 260/1/5 258/1/5 259/1/5
f 263/1/5 262/1/5 261/1/5
f 264/1/5 262/1/5 263/1/5
f 265/1/6 266/1/6 269/1/6
f 269/1/6 266/1/6 270/1/6
f 267/1/6 268/1/6 271/1/6
f 271/1/6 268/1/6 272/1/6
f 273/4/6 274/4/6 275/4/6
f 275/4/6 274/4/6 276/4/6
f 277/4/6 278/4/6 279/4/6
f 279/4/6 278/4/6 280/4/6
f 281/1/6 282/1/6 285/1/6
f 285/1/6 282/1/6 286/1/6
f 283/1/6 284/1/6 287/1/6
f 287/1/6 284/1/6 288/1/6
f 289/1/6 290/1/6 291/1/6
f 291/1/6 290/1/6 292/1/6
f 293/1/6 294/1/6 295/1/6
f 295/1/6 294/1/6 296/1/6
f 297/1/6 298/1/6 301/1/6
f 301/1/6 298/1/6 302/1/6
f 299/1/6 300/1/6 303/1/6
f 303/1/6 300/1/6 304/1/6
f 305/1/6 306/1/6 309/1/6
f 309/1/6 306/1/6 310/1/6
f 307/1/6 308/1/6 311/1/6
f 311/1/6 308/1/6 312/1/6
f 313/1/6 314/1/6 315/1/6
f 315/1/6 314/1/6 316/1/6
