# MagicaVoxel @ Ephtracy

# material
mtllib StopSign01.mtl
usemtl palette

# normals
vn -1 0 0
vn 1 0 0
vn 0 0 1
vn 0 0 -1
vn 0 -1 0
vn 0 1 0

# texcoords
vt 0.814453 0.5
vt 0.970703 0.5
vt 0.990234 0.5

# verts
v -1 0 0.5
v -1 0 -0.5
v -1 32 0.5
v -1 32 -0.5
v 0 23 2.5
v 0 23 0.5
v 0 23 -0.5
v 0 23 -2.5
v 0 24 4.5
v 0 24 2.5
v 0 24 -2.5
v 0 24 -4.5
v 0 25 6.5
v 0 25 4.5
v 0 25 -4.5
v 0 25 -6.5
v 0 27 7.5
v 0 27 6.5
v 0 27 -6.5
v 0 27 -7.5
v 0 29 8.5
v 0 29 7.5
v 0 29 4.5
v 0 29 2.5
v 0 29 1.5
v 0 29 -0.5
v 0 29 -3.5
v 0 29 -4.5
v 0 29 -5.5
v 0 29 -7.5
v 0 29 -8.5
v 0 30 7.5
v 0 30 5.5
v 0 30 -1.5
v 0 30 -2.5
v 0 31 7.5
v 0 31 5.5
v 0 31 -5.5
v 0 31 -7.5
v 0 32 6.5
v 0 32 4.5
v 0 32 0.5
v 0 32 -0.5
v 0 32 -5.5
v 0 32 -6.5
v 0 33 6.5
v 0 33 4.5
v 0 33 3.5
v 0 33 2.5
v 0 33 1.5
v 0 33 0.5
v 0 33 -1.5
v 0 33 -2.5
v 0 33 -5.5
v 0 33 -6.5
v 0 34 8.5
v 0 34 7.5
v 0 34 4.5
v 0 34 3.5
v 0 34 0.5
v 0 34 -0.5
v 0 34 -3.5
v 0 34 -4.5
v 0 34 -7.5
v 0 34 -8.5
v 0 36 7.5
v 0 36 6.5
v 0 36 -6.5
v 0 36 -7.5
v 0 38 6.5
v 0 38 4.5
v 0 38 -4.5
v 0 38 -6.5
v 0 39 4.5
v 0 39 2.5
v 0 39 -2.5
v 0 39 -4.5
v 0 40 2.5
v 0 40 -2.5
v 0 0 0.5
v 0 0 -0.5
v 0 23 0.5
v 0 23 -0.5
v 1 23 2.5
v 1 23 -2.5
v 1 24 4.5
v 1 24 2.5
v 1 24 -2.5
v 1 24 -4.5
v 1 25 6.5
v 1 25 4.5
v 1 25 -4.5
v 1 25 -6.5
v 1 27 7.5
v 1 27 6.5
v 1 27 -6.5
v 1 27 -7.5
v 1 29 8.5
v 1 29 7.5
v 1 29 4.5
v 1 29 2.5
v 1 29 1.5
v 1 29 -0.5
v 1 29 -3.5
v 1 29 -4.5
v 1 29 -5.5
v 1 29 -7.5
v 1 29 -8.5
v 1 30 7.5
v 1 30 5.5
v 1 30 -1.5
v 1 30 -2.5
v 1 31 7.5
v 1 31 5.5
v 1 31 -5.5
v 1 31 -7.5
v 1 32 6.5
v 1 32 4.5
v 1 32 -5.5
v 1 32 -6.5
v 1 33 6.5
v 1 33 4.5
v 1 33 3.5
v 1 33 2.5
v 1 33 1.5
v 1 33 0.5
v 1 33 -1.5
v 1 33 -2.5
v 1 33 -5.5
v 1 33 -6.5
v 1 34 8.5
v 1 34 7.5
v 1 34 4.5
v 1 34 3.5
v 1 34 0.5
v 1 34 -0.5
v 1 34 -3.5
v 1 34 -4.5
v 1 34 -7.5
v 1 34 -8.5
v 1 36 7.5
v 1 36 6.5
v 1 36 -6.5
v 1 36 -7.5
v 1 38 6.5
v 1 38 4.5
v 1 38 -4.5
v 1 38 -6.5
v 1 39 4.5
v 1 39 2.5
v 1 39 -2.5
v 1 39 -4.5
v 1 40 2.5
v 1 40 -2.5
v 0 29 8.5
v 0 34 8.5
v 1 29 8.5
v 1 34 8.5
v 0 27 7.5
v 0 29 7.5
v 0 34 7.5
v 0 36 7.5
v 1 27 7.5
v 1 29 7.5
v 1 34 7.5
v 1 36 7.5
v 0 25 6.5
v 0 27 6.5
v 0 36 6.5
v 0 38 6.5
v 1 25 6.5
v 1 27 6.5
v 1 36 6.5
v 1 38 6.5
v 0 24 4.5
v 0 25 4.5
v 0 38 4.5
v 0 39 4.5
v 1 24 4.5
v 1 25 4.5
v 1 38 4.5
v 1 39 4.5
v 0 23 2.5
v 0 24 2.5
v 0 39 2.5
v 0 40 2.5
v 1 23 2.5
v 1 24 2.5
v 1 39 2.5
v 1 40 2.5
v -1 0 0.5
v -1 32 0.5
v 0 0 0.5
v 0 23 0.5
v 0 32 0.5
v -1 0 -0.5
v -1 32 -0.5
v 0 0 -0.5
v 0 23 -0.5
v 0 29 -0.5
v 0 32 -0.5
v 0 23 -2.5
v 0 24 -2.5
v 0 39 -2.5
v 0 40 -2.5
v 1 23 -2.5
v 1 24 -2.5
v 1 39 -2.5
v 1 40 -2.5
v 0 24 -4.5
v 0 25 -4.5
v 0 38 -4.5
v 0 39 -4.5
v 1 24 -4.5
v 1 25 -4.5
v 1 38 -4.5
v 1 39 -4.5
v 0 25 -6.5
v 0 27 -6.5
v 0 36 -6.5
v 0 38 -6.5
v 1 25 -6.5
v 1 27 -6.5
v 1 36 -6.5
v 1 38 -6.5
v 0 27 -7.5
v 0 29 -7.5
v 0 34 -7.5
v 0 36 -7.5
v 1 27 -7.5
v 1 29 -7.5
v 1 34 -7.5
v 1 36 -7.5
v 0 29 -8.5
v 0 34 -8.5
v 1 29 -8.5
v 1 34 -8.5
v -1 0 0.5
v 0 0 0.5
v -1 0 -0.5
v 0 0 -0.5
v 0 23 2.5
v 1 23 2.5
v 0 23 0.5
v 0 23 -0.5
v 0 23 -2.5
v 1 23 -2.5
v 0 24 4.5
v 1 24 4.5
v 0 24 2.5
v 1 24 2.5
v 0 24 -2.5
v 1 24 -2.5
v 0 24 -4.5
v 1 24 -4.5
v 0 25 6.5
v 1 25 6.5
v 0 25 4.5
v 1 25 4.5
v 0 25 -4.5
v 1 25 -4.5
v 0 25 -6.5
v 1 25 -6.5
v 0 27 7.5
v 1 27 7.5
v 0 27 6.5
v 1 27 6.5
v 0 27 -6.5
v 1 27 -6.5
v 0 27 -7.5
v 1 27 -7.5
v 0 29 8.5
v 1 29 8.5
v 0 29 7.5
v 1 29 7.5
v 0 29 -7.5
v 1 29 -7.5
v 0 29 -8.5
v 1 29 -8.5
v -1 32 0.5
v 0 32 0.5
v -1 32 -0.5
v 0 32 -0.5
v 0 34 8.5
v 1 34 8.5
v 0 34 7.5
v 1 34 7.5
v 0 34 -7.5
v 1 34 -7.5
v 0 34 -8.5
v 1 34 -8.5
v 0 36 7.5
v 1 36 7.5
v 0 36 6.5
v 1 36 6.5
v 0 36 -6.5
v 1 36 -6.5
v 0 36 -7.5
v 1 36 -7.5
v 0 38 6.5
v 1 38 6.5
v 0 38 4.5
v 1 38 4.5
v 0 38 -4.5
v 1 38 -4.5
v 0 38 -6.5
v 1 38 -6.5
v 0 39 4.5
v 1 39 4.5
v 0 39 2.5
v 1 39 2.5
v 0 39 -2.5
v 1 39 -2.5
v 0 39 -4.5
v 1 39 -4.5
v 0 40 2.5
v 1 40 2.5
v 0 40 -2.5
v 1 40 -2.5

# faces
f 3/3/1 2/3/1 1/3/1
f 4/3/1 2/3/1 3/3/1
f 10/1/1 6/1/1 5/1/1
f 11/1/1 8/1/1 7/1/1
f 14/1/1 10/1/1 9/1/1
f 15/1/1 12/1/1 11/1/1
f 18/1/1 14/1/1 13/1/1
f 19/1/1 16/1/1 15/1/1
f 22/1/1 18/1/1 17/1/1
f 23/1/1 10/1/1 14/1/1
f 23/1/1 14/1/1 18/1/1
f 23/1/1 18/1/1 22/1/1
f 24/1/1 6/1/1 10/1/1
f 24/1/1 10/1/1 23/1/1
f 25/1/1 6/1/1 24/1/1
f 26/1/1 20/1/1 19/1/1
f 26/1/1 11/1/1 7/1/1
f 26/1/1 15/1/1 11/1/1
f 26/1/1 19/1/1 15/1/1
f 27/1/1 20/1/1 26/1/1
f 28/1/1 20/1/1 27/1/1
f 29/1/1 20/1/1 28/1/1
f 30/1/1 20/1/1 29/1/1
f 32/2/1 23/2/1 22/2/1
f 32/1/1 22/1/1 21/1/1
f 33/2/1 23/2/1 32/2/1
f 34/2/1 27/2/1 26/2/1
f 35/2/1 27/2/1 34/2/1
f 36/1/1 32/1/1 21/1/1
f 36/1/1 33/1/1 32/1/1
f 37/2/1 23/2/1 33/2/1
f 37/1/1 33/1/1 36/1/1
f 38/1/1 31/1/1 30/1/1
f 38/1/1 30/1/1 29/1/1
f 38/2/1 29/2/1 28/2/1
f 39/1/1 31/1/1 38/1/1
f 40/2/1 37/2/1 36/2/1
f 41/2/1 23/2/1 37/2/1
f 41/2/1 37/2/1 40/2/1
f 41/1/1 24/1/1 23/1/1
f 42/1/1 6/1/1 25/1/1
f 43/2/1 34/2/1 26/2/1
f 44/2/1 39/2/1 38/2/1
f 44/2/1 38/2/1 28/2/1
f 45/2/1 39/2/1 44/2/1
f 46/2/1 40/2/1 36/2/1
f 46/1/1 41/1/1 40/1/1
f 47/1/1 24/1/1 41/1/1
f 47/1/1 41/1/1 46/1/1
f 48/1/1 24/1/1 47/1/1
f 49/2/1 25/2/1 24/2/1
f 49/1/1 24/1/1 48/1/1
f 50/1/1 43/1/1 42/1/1
f 50/2/1 25/2/1 49/2/1
f 50/1/1 42/1/1 25/1/1
f 51/1/1 43/1/1 50/1/1
f 52/1/1 35/1/1 34/1/1
f 52/2/1 34/2/1 43/2/1
f 53/2/1 27/2/1 35/2/1
f 53/1/1 35/1/1 52/1/1
f 54/1/1 45/1/1 44/1/1
f 54/2/1 44/2/1 28/2/1
f 55/2/1 39/2/1 45/2/1
f 55/1/1 45/1/1 54/1/1
f 56/1/1 36/1/1 21/1/1
f 57/2/1 46/2/1 36/2/1
f 57/1/1 36/1/1 56/1/1
f 57/2/1 47/2/1 46/2/1
f 58/1/1 48/1/1 47/1/1
f 58/2/1 47/2/1 57/2/1
f 59/2/1 49/2/1 48/2/1
f 59/1/1 48/1/1 58/1/1
f 59/2/1 51/2/1 50/2/1
f 59/2/1 50/2/1 49/2/1
f 60/1/1 43/1/1 51/1/1
f 60/2/1 51/2/1 59/2/1
f 61/2/1 52/2/1 43/2/1
f 61/1/1 43/1/1 60/1/1
f 61/2/1 53/2/1 52/2/1
f 62/1/1 28/1/1 27/1/1
f 62/2/1 53/2/1 61/2/1
f 62/2/1 27/2/1 53/2/1
f 63/2/1 54/2/1 28/2/1
f 63/1/1 28/1/1 62/1/1
f 63/2/1 55/2/1 54/2/1
f 64/1/1 31/1/1 39/1/1
f 64/2/1 55/2/1 63/2/1
f 64/2/1 39/2/1 55/2/1
f 65/1/1 31/1/1 64/1/1
f 66/1/1 62/1/1 61/1/1
f 66/1/1 64/1/1 63/1/1
f 66/1/1 60/1/1 59/1/1
f 66/1/1 63/1/1 62/1/1
f 66/1/1 61/1/1 60/1/1
f 66/1/1 59/1/1 58/1/1
f 66/1/1 58/1/1 57/1/1
f 67/1/1 64/1/1 66/1/1
f 68/1/1 64/1/1 67/1/1
f 69/1/1 64/1/1 68/1/1
f 70/1/1 68/1/1 67/1/1
f 71/1/1 68/1/1 70/1/1
f 72/1/1 68/1/1 71/1/1
f 73/1/1 68/1/1 72/1/1
f 74/1/1 72/1/1 71/1/1
f 75/1/1 72/1/1 74/1/1
f 76/1/1 72/1/1 75/1/1
f 77/1/1 72/1/1 76/1/1
f 78/1/1 76/1/1 75/1/1
f 79/1/1 76/1/1 78/1/1
f 80/3/2 81/3/2 82/3/2
f 82/3/2 81/3/2 83/3/2
f 84/1/2 85/1/2 87/1/2
f 87/1/2 85/1/2 88/1/2
f 86/1/2 87/1/2 91/1/2
f 88/1/2 89/1/2 91/1/2
f 87/1/2 88/1/2 91/1/2
f 91/1/2 89/1/2 92/1/2
f 90/1/2 91/1/2 95/1/2
f 92/1/2 93/1/2 95/1/2
f 91/1/2 92/1/2 95/1/2
f 95/1/2 93/1/2 96/1/2
f 94/1/2 95/1/2 99/1/2
f 96/1/2 97/1/2 99/1/2
f 95/1/2 96/1/2 99/1/2
f 99/1/2 97/1/2 100/1/2
f 100/1/2 97/1/2 101/1/2
f 101/1/2 97/1/2 102/1/2
f 102/1/2 97/1/2 103/1/2
f 103/1/2 97/1/2 104/1/2
f 104/1/2 97/1/2 105/1/2
f 105/1/2 97/1/2 106/1/2
f 106/1/2 97/1/2 107/1/2
f 98/1/2 99/1/2 109/1/2
f 99/2/2 100/2/2 109/2/2
f 109/2/2 100/2/2 110/2/2
f 103/2/2 104/2/2 111/2/2
f 111/2/2 104/2/2 112/2/2
f 98/1/2 109/1/2 113/1/2
f 109/1/2 110/1/2 113/1/2
f 110/2/2 100/2/2 114/2/2
f 113/1/2 110/1/2 114/1/2
f 107/1/2 108/1/2 115/1/2
f 106/1/2 107/1/2 115/1/2
f 105/2/2 106/2/2 115/2/2
f 115/1/2 108/1/2 116/1/2
f 113/2/2 114/2/2 117/2/2
f 114/2/2 100/2/2 118/2/2
f 117/2/2 114/2/2 118/2/2
f 100/1/2 101/1/2 118/1/2
f 115/2/2 116/2/2 119/2/2
f 105/2/2 115/2/2 119/2/2
f 119/2/2 116/2/2 120/2/2
f 113/2/2 117/2/2 121/2/2
f 117/1/2 118/1/2 121/1/2
f 118/1/2 101/1/2 122/1/2
f 121/1/2 118/1/2 122/1/2
f 122/1/2 101/1/2 123/1/2
f 101/2/2 102/2/2 124/2/2
f 123/1/2 101/1/2 124/1/2
f 102/1/2 103/1/2 125/1/2
f 124/2/2 102/2/2 125/2/2
f 125/1/2 103/1/2 126/1/2
f 103/2/2 111/2/2 127/2/2
f 111/1/2 112/1/2 127/1/2
f 112/2/2 104/2/2 128/2/2
f 127/1/2 112/1/2 128/1/2
f 119/1/2 120/1/2 129/1/2
f 105/2/2 119/2/2 129/2/2
f 120/2/2 116/2/2 130/2/2
f 129/1/2 120/1/2 130/1/2
f 98/1/2 113/1/2 131/1/2
f 113/2/2 121/2/2 132/2/2
f 131/1/2 113/1/2 132/1/2
f 121/2/2 122/2/2 132/2/2
f 122/1/2 123/1/2 133/1/2
f 132/2/2 122/2/2 133/2/2
f 123/2/2 124/2/2 134/2/2
f 133/1/2 123/1/2 134/1/2
f 125/2/2 126/2/2 134/2/2
f 124/2/2 125/2/2 134/2/2
f 126/1/2 103/1/2 135/1/2
f 134/2/2 126/2/2 135/2/2
f 103/2/2 127/2/2 136/2/2
f 135/1/2 103/1/2 136/1/2
f 127/2/2 128/2/2 136/2/2
f 104/1/2 105/1/2 137/1/2
f 136/2/2 128/2/2 137/2/2
f 128/2/2 104/2/2 137/2/2
f 105/2/2 129/2/2 138/2/2
f 137/1/2 105/1/2 138/1/2
f 129/2/2 130/2/2 138/2/2
f 116/1/2 108/1/2 139/1/2
f 138/2/2 130/2/2 139/2/2
f 130/2/2 116/2/2 139/2/2
f 139/1/2 108/1/2 140/1/2
f 136/1/2 137/1/2 141/1/2
f 137/1/2 138/1/2 141/1/2
f 138/1/2 139/1/2 141/1/2
f 133/1/2 134/1/2 141/1/2
f 135/1/2 136/1/2 141/1/2
f 134/1/2 135/1/2 141/1/2
f 132/1/2 133/1/2 141/1/2
f 141/1/2 139/1/2 142/1/2
f 142/1/2 139/1/2 143/1/2
f 143/1/2 139/1/2 144/1/2
f 142/1/2 143/1/2 145/1/2
f 145/1/2 143/1/2 146/1/2
f 146/1/2 143/1/2 147/1/2
f 147/1/2 143/1/2 148/1/2
f 146/1/2 147/1/2 149/1/2
f 149/1/2 147/1/2 150/1/2
f 150/1/2 147/1/2 151/1/2
f 151/1/2 147/1/2 152/1/2
f 150/1/2 151/1/2 153/1/2
f 153/1/2 151/1/2 154/1/2
f 157/1/3 156/1/3 155/1/3
f 158/1/3 156/1/3 157/1/3
f 163/1/3 160/1/3 159/1/3
f 164/1/3 160/1/3 163/1/3
f 165/1/3 162/1/3 161/1/3
f 166/1/3 162/1/3 165/1/3
f 171/1/3 168/1/3 167/1/3
f 172/1/3 168/1/3 171/1/3
f 173/1/3 170/1/3 169/1/3
f 174/1/3 170/1/3 173/1/3
f 179/1/3 176/1/3 175/1/3
f 180/1/3 176/1/3 179/1/3
f 181/1/3 178/1/3 177/1/3
f 182/1/3 178/1/3 181/1/3
f 187/1/3 184/1/3 183/1/3
f 188/1/3 184/1/3 187/1/3
f 189/1/3 186/1/3 185/1/3
f 190/1/3 186/1/3 189/1/3
f 193/3/3 192/3/3 191/3/3
f 194/3/3 192/3/3 193/3/3
f 195/3/3 192/3/3 194/3/3
f 196/3/4 197/3/4 198/3/4
f 198/3/4 197/3/4 199/3/4
f 199/3/4 197/3/4 200/3/4
f 200/3/4 197/3/4 201/3/4
f 202/1/4 203/1/4 206/1/4
f 206/1/4 203/1/4 207/1/4
f 204/1/4 205/1/4 208/1/4
f 208/1/4 205/1/4 209/1/4
f 210/1/4 211/1/4 214/1/4
f 214/1/4 211/1/4 215/1/4
f 212/1/4 213/1/4 216/1/4
f 216/1/4 213/1/4 217/1/4
f 218/1/4 219/1/4 222/1/4
f 222/1/4 219/1/4 223/1/4
f 220/1/4 221/1/4 224/1/4
f 224/1/4 221/1/4 225/1/4
f 226/1/4 227/1/4 230/1/4
f 230/1/4 227/1/4 231/1/4
f 228/1/4 229/1/4 232/1/4
f 232/1/4 229/1/4 233/1/4
f 234/1/4 235/1/4 236/1/4
f 236/1/4 235/1/4 237/1/4
f 240/3/5 239/3/5 238/3/5
f 241/3/5 239/3/5 240/3/5
f 244/1/5 243/1/5 242/1/5
f 245/1/5 243/1/5 244/1/5
f 246/1/5 243/1/5 245/1/5
f 247/1/5 243/1/5 246/1/5
f 250/1/5 249/1/5 248/1/5
f 251/1/5 249/1/5 250/1/5
f 254/1/5 253/1/5 252/1/5
f 255/1/5 253/1/5 254/1/5
f 258/1/5 257/1/5 256/1/5
f 259/1/5 257/1/5 258/1/5
f 262/1/5 261/1/5 260/1/5
f 263/1/5 261/1/5 262/1/5
f 266/1/5 265/1/5 264/1/5
f 267/1/5 265/1/5 266/1/5
f 270/1/5 269/1/5 268/1/5
f 271/1/5 269/1/5 270/1/5
f 274/1/5 273/1/5 272/1/5
f 275/1/5 273/1/5 274/1/5
f 278/1/5 277/1/5 276/1/5
f 279/1/5 277/1/5 278/1/5
f 280/3/6 281/3/6 282/3/6
f 282/3/6 281/3/6 283/3/6
f 284/1/6 285/1/6 286/1/6
f 286/1/6 285/1/6 287/1/6
f 288/1/6 289/1/6 290/1/6
f 290/1/6 289/1/6 291/1/6
f 292/1/6 293/1/6 294/1/6
f 294/1/6 293/1/6 295/1/6
f 296/1/6 297/1/6 298/1/6
f 298/1/6 297/1/6 299/1/6
f 300/1/6 301/1/6 302/1/6
f 302/1/6 301/1/6 303/1/6
f 304/1/6 305/1/6 306/1/6
f 306/1/6 305/1/6 307/1/6
f 308/1/6 309/1/6 310/1/6
f 310/1/6 309/1/6 311/1/6
f 312/1/6 313/1/6 314/1/6
f 314/1/6 313/1/6 315/1/6
f 316/1/6 317/1/6 318/1/6
f 318/1/6 317/1/6 319/1/6
