# MagicaVoxel @ Ephtracy

# material
mtllib Trash01.mtl
usemtl palette

# normals
vn -1 0 0
vn 1 0 0
vn 0 0 1
vn 0 0 -1
vn 0 -1 0
vn 0 1 0

# texcoords
vt 0.943359 0.5
vt 0.947266 0.5
vt 0.970703 0.5
vt 0.986328 0.5

# verts
v -8 4 5
v -8 4 -5
v -8 7 5
v -8 7 -5
v -7 0 5
v -7 0 4
v -7 0 -4
v -7 0 -5
v -7 1 5
v -7 1 4
v -7 1 -4
v -7 1 -5
v -7 4 5
v -7 4 -5
v -7 7 5
v -7 7 4
v -7 7 -5
v -7 8 5
v -7 8 4
v -7 8 2
v -7 9 4
v -7 9 2
v -7 9 -0
v -7 10 2
v -7 10 -0
v -7 10 -2
v -7 11 -0
v -7 11 -2
v -7 11 -4
v -7 12 -2
v -7 12 -4
v -7 12 -5
v -7 13 -4
v -7 13 -5
v 6 0 5
v 6 0 4
v 6 0 -4
v 6 0 -5
v 6 1 5
v 6 1 4
v 6 1 -4
v 6 1 -5
v -6 0 5
v -6 0 4
v -6 0 -4
v -6 0 -5
v -6 1 5
v -6 1 4
v -6 1 -4
v -6 1 -5
v 7 0 5
v 7 0 4
v 7 0 -4
v 7 0 -5
v 7 1 5
v 7 1 4
v 7 1 -4
v 7 1 -5
v 7 4 5
v 7 4 -5
v 7 7 5
v 7 7 4
v 7 7 -5
v 7 8 5
v 7 8 4
v 7 8 2
v 7 9 4
v 7 9 2
v 7 9 -0
v 7 10 2
v 7 10 -0
v 7 10 -2
v 7 11 -0
v 7 11 -2
v 7 11 -4
v 7 12 -2
v 7 12 -4
v 7 12 -5
v 7 13 -4
v 7 13 -5
v 8 4 5
v 8 4 -5
v 8 7 5
v 8 7 -5
v -8 4 5
v -8 7 5
v -7 0 5
v -7 1 5
v -7 4 5
v -7 7 5
v -7 8 5
v -6 0 5
v -6 1 5
v -6 7 5
v -6 8 5
v -3 3 5
v -3 4 5
v -2 4 5
v -2 5 5
v -1 4 5
v -1 5 5
v -1 6 5
v 1 4 5
v 1 5 5
v 1 6 5
v 2 4 5
v 2 5 5
v 3 3 5
v 3 4 5
v 6 0 5
v 6 1 5
v 6 7 5
v 6 8 5
v 7 0 5
v 7 1 5
v 7 4 5
v 7 7 5
v 7 8 5
v 8 4 5
v 8 7 5
v -7 8 4
v -7 9 4
v -6 8 4
v -6 9 4
v 6 8 4
v 6 9 4
v 7 8 4
v 7 9 4
v -7 9 2
v -7 10 2
v -6 9 2
v -6 10 2
v 6 9 2
v 6 10 2
v 7 9 2
v 7 10 2
v -7 10 -0
v -7 11 -0
v -6 10 -0
v -6 11 -0
v 6 10 -0
v 6 11 -0
v 7 10 -0
v 7 11 -0
v -7 11 -2
v -7 12 -2
v -6 11 -2
v -6 12 -2
v 6 11 -2
v 6 12 -2
v 7 11 -2
v 7 12 -2
v -7 0 -4
v -7 1 -4
v -7 12 -4
v -7 13 -4
v -6 0 -4
v -6 1 -4
v -6 12 -4
v -6 13 -4
v 6 0 -4
v 6 1 -4
v 6 12 -4
v 6 13 -4
v 7 0 -4
v 7 1 -4
v 7 12 -4
v 7 13 -4
v -7 0 4
v -7 1 4
v -6 0 4
v -6 1 4
v 6 0 4
v 6 1 4
v 7 0 4
v 7 1 4
v -8 4 -5
v -8 7 -5
v -7 0 -5
v -7 1 -5
v -7 4 -5
v -7 7 -5
v -7 12 -5
v -7 13 -5
v -6 0 -5
v -6 1 -5
v -6 12 -5
v -6 13 -5
v -3 6 -5
v -3 7 -5
v -2 7 -5
v -2 8 -5
v -1 7 -5
v -1 8 -5
v -1 9 -5
v 1 7 -5
v 1 8 -5
v 1 9 -5
v 2 7 -5
v 2 8 -5
v 3 6 -5
v 3 7 -5
v 6 0 -5
v 6 1 -5
v 6 12 -5
v 6 13 -5
v 7 0 -5
v 7 1 -5
v 7 4 -5
v 7 7 -5
v 7 12 -5
v 7 13 -5
v 8 4 -5
v 8 7 -5
v -7 0 5
v -6 0 5
v 6 0 5
v 7 0 5
v -7 0 4
v -6 0 4
v 6 0 4
v 7 0 4
v -7 0 -4
v -6 0 -4
v 6 0 -4
v 7 0 -4
v -7 0 -5
v -6 0 -5
v 6 0 -5
v 7 0 -5
v -6 1 5
v 6 1 5
v -7 1 4
v -6 1 4
v 6 1 4
v 7 1 4
v -7 1 -4
v -6 1 -4
v 6 1 -4
v 7 1 -4
v -6 1 -5
v 6 1 -5
v -8 4 5
v -7 4 5
v 7 4 5
v 8 4 5
v -8 4 -5
v -7 4 -5
v 7 4 -5
v 8 4 -5
v -8 7 5
v -7 7 5
v 7 7 5
v 8 7 5
v -7 7 4
v 7 7 4
v -8 7 -5
v -7 7 -5
v 7 7 -5
v 8 7 -5
v -7 8 5
v -6 8 5
v 6 8 5
v 7 8 5
v -7 8 4
v -6 8 4
v 6 8 4
v 7 8 4
v -7 9 4
v -6 9 4
v 6 9 4
v 7 9 4
v -7 9 2
v -6 9 2
v 6 9 2
v 7 9 2
v -7 10 2
v -6 10 2
v 6 10 2
v 7 10 2
v -7 10 -0
v -6 10 -0
v 6 10 -0
v 7 10 -0
v -7 11 -0
v -6 11 -0
v 6 11 -0
v 7 11 -0
v -7 11 -2
v -6 11 -2
v 6 11 -2
v 7 11 -2
v -7 12 -2
v -6 12 -2
v 6 12 -2
v 7 12 -2
v -7 12 -4
v -6 12 -4
v 6 12 -4
v 7 12 -4
v -7 13 -4
v -6 13 -4
v 6 13 -4
v 7 13 -4
v -7 13 -5
v -6 13 -5
v 6 13 -5
v 7 13 -5

# faces
f 3/4/1 2/4/1 1/4/1
f 4/4/1 2/4/1 3/4/1
f 9/4/1 6/4/1 5/4/1
f 10/4/1 6/4/1 9/4/1
f 11/4/1 8/4/1 7/4/1
f 12/4/1 8/4/1 11/4/1
f 13/1/1 10/1/1 9/1/1
f 13/1/1 11/1/1 10/1/1
f 13/1/1 12/1/1 11/1/1
f 14/1/1 12/1/1 13/1/1
f 18/2/1 16/2/1 15/2/1
f 19/1/1 17/1/1 16/1/1
f 19/2/1 16/2/1 18/2/1
f 20/1/1 17/1/1 19/1/1
f 21/2/1 20/2/1 19/2/1
f 22/1/1 17/1/1 20/1/1
f 22/2/1 20/2/1 21/2/1
f 23/1/1 17/1/1 22/1/1
f 24/2/1 23/2/1 22/2/1
f 25/1/1 17/1/1 23/1/1
f 25/2/1 23/2/1 24/2/1
f 26/1/1 17/1/1 25/1/1
f 27/2/1 26/2/1 25/2/1
f 28/1/1 17/1/1 26/1/1
f 28/2/1 26/2/1 27/2/1
f 29/1/1 17/1/1 28/1/1
f 30/2/1 29/2/1 28/2/1
f 31/1/1 17/1/1 29/1/1
f 31/2/1 29/2/1 30/2/1
f 32/1/1 17/1/1 31/1/1
f 33/2/1 32/2/1 31/2/1
f 34/2/1 32/2/1 33/2/1
f 39/4/1 36/4/1 35/4/1
f 40/4/1 36/4/1 39/4/1
f 41/4/1 38/4/1 37/4/1
f 42/4/1 38/4/1 41/4/1
f 43/4/2 44/4/2 47/4/2
f 47/4/2 44/4/2 48/4/2
f 45/4/2 46/4/2 49/4/2
f 49/4/2 46/4/2 50/4/2
f 51/4/2 52/4/2 55/4/2
f 55/4/2 52/4/2 56/4/2
f 53/4/2 54/4/2 57/4/2
f 57/4/2 54/4/2 58/4/2
f 55/1/2 56/1/2 59/1/2
f 56/1/2 57/1/2 59/1/2
f 57/1/2 58/1/2 59/1/2
f 59/1/2 58/1/2 60/1/2
f 61/2/2 62/2/2 64/2/2
f 62/1/2 63/1/2 65/1/2
f 64/2/2 62/2/2 65/2/2
f 65/1/2 63/1/2 66/1/2
f 65/2/2 66/2/2 67/2/2
f 66/1/2 63/1/2 68/1/2
f 67/2/2 66/2/2 68/2/2
f 68/1/2 63/1/2 69/1/2
f 68/2/2 69/2/2 70/2/2
f 69/1/2 63/1/2 71/1/2
f 70/2/2 69/2/2 71/2/2
f 71/1/2 63/1/2 72/1/2
f 71/2/2 72/2/2 73/2/2
f 72/1/2 63/1/2 74/1/2
f 73/2/2 72/2/2 74/2/2
f 74/1/2 63/1/2 75/1/2
f 74/2/2 75/2/2 76/2/2
f 75/1/2 63/1/2 77/1/2
f 76/2/2 75/2/2 77/2/2
f 77/1/2 63/1/2 78/1/2
f 77/2/2 78/2/2 79/2/2
f 79/2/2 78/2/2 80/2/2
f 81/4/2 82/4/2 83/4/2
f 83/4/2 82/4/2 84/4/2
f 89/4/3 86/4/3 85/4/3
f 90/4/3 86/4/3 89/4/3
f 92/4/3 88/4/3 87/4/3
f 93/1/3 89/1/3 88/1/3
f 93/4/3 88/4/3 92/4/3
f 93/1/3 90/1/3 89/1/3
f 94/2/3 91/2/3 90/2/3
f 94/1/3 90/1/3 93/1/3
f 95/2/3 91/2/3 94/2/3
f 96/1/3 94/1/3 93/1/3
f 97/1/3 94/1/3 96/1/3
f 98/3/3 97/3/3 96/3/3
f 98/1/3 94/1/3 97/1/3
f 99/1/3 94/1/3 98/1/3
f 100/3/3 98/3/3 96/3/3
f 100/3/3 99/3/3 98/3/3
f 101/1/3 94/1/3 99/1/3
f 101/3/3 99/3/3 100/3/3
f 102/1/3 94/1/3 101/1/3
f 103/3/3 100/3/3 96/3/3
f 103/1/3 101/1/3 100/1/3
f 104/3/3 102/3/3 101/3/3
f 104/1/3 101/1/3 103/1/3
f 105/1/3 94/1/3 102/1/3
f 105/3/3 102/3/3 104/3/3
f 106/3/3 104/3/3 103/3/3
f 106/3/3 103/3/3 96/3/3
f 107/1/3 105/1/3 104/1/3
f 107/3/3 104/3/3 106/3/3
f 108/1/3 96/1/3 93/1/3
f 108/3/3 106/3/3 96/3/3
f 109/1/3 107/1/3 106/1/3
f 109/3/3 106/3/3 108/3/3
f 111/1/3 108/1/3 93/1/3
f 111/1/3 109/1/3 108/1/3
f 112/4/3 95/4/3 94/4/3
f 112/1/3 105/1/3 107/1/3
f 112/1/3 109/1/3 111/1/3
f 112/1/3 94/1/3 105/1/3
f 112/1/3 107/1/3 109/1/3
f 113/4/3 95/4/3 112/4/3
f 114/4/3 111/4/3 110/4/3
f 115/1/3 112/1/3 111/1/3
f 115/4/3 111/4/3 114/4/3
f 116/1/3 112/1/3 115/1/3
f 117/2/3 113/2/3 112/2/3
f 117/1/3 112/1/3 116/1/3
f 118/2/3 113/2/3 117/2/3
f 119/4/3 117/4/3 116/4/3
f 120/4/3 117/4/3 119/4/3
f 123/2/3 122/2/3 121/2/3
f 124/2/3 122/2/3 123/2/3
f 125/4/3 124/4/3 123/4/3
f 126/4/3 124/4/3 125/4/3
f 127/2/3 126/2/3 125/2/3
f 128/2/3 126/2/3 127/2/3
f 131/2/3 130/2/3 129/2/3
f 132/2/3 130/2/3 131/2/3
f 133/4/3 132/4/3 131/4/3
f 134/4/3 132/4/3 133/4/3
f 135/2/3 134/2/3 133/2/3
f 136/2/3 134/2/3 135/2/3
f 139/2/3 138/2/3 137/2/3
f 140/2/3 138/2/3 139/2/3
f 141/4/3 140/4/3 139/4/3
f 142/4/3 140/4/3 141/4/3
f 143/2/3 142/2/3 141/2/3
f 144/2/3 142/2/3 143/2/3
f 147/2/3 146/2/3 145/2/3
f 148/2/3 146/2/3 147/2/3
f 149/4/3 148/4/3 147/4/3
f 150/4/3 148/4/3 149/4/3
f 151/2/3 150/2/3 149/2/3
f 152/2/3 150/2/3 151/2/3
f 157/4/3 154/4/3 153/4/3
f 158/4/3 154/4/3 157/4/3
f 159/2/3 156/2/3 155/2/3
f 160/2/3 156/2/3 159/2/3
f 163/4/3 160/4/3 159/4/3
f 164/4/3 160/4/3 163/4/3
f 165/4/3 162/4/3 161/4/3
f 166/4/3 162/4/3 165/4/3
f 167/2/3 164/2/3 163/2/3
f 168/2/3 164/2/3 167/2/3
f 169/4/4 170/4/4 171/4/4
f 171/4/4 170/4/4 172/4/4
f 173/4/4 174/4/4 175/4/4
f 175/4/4 174/4/4 176/4/4
f 177/4/4 178/4/4 181/4/4
f 181/4/4 178/4/4 182/4/4
f 179/4/4 180/4/4 185/4/4
f 180/1/4 181/1/4 186/1/4
f 185/4/4 180/4/4 186/4/4
f 181/1/4 182/1/4 186/1/4
f 182/1/4 183/1/4 186/1/4
f 183/2/4 184/2/4 187/2/4
f 186/1/4 183/1/4 187/1/4
f 187/2/4 184/2/4 188/2/4
f 186/1/4 187/1/4 189/1/4
f 189/1/4 187/1/4 190/1/4
f 189/3/4 190/3/4 191/3/4
f 190/1/4 187/1/4 191/1/4
f 191/1/4 187/1/4 192/1/4
f 189/3/4 191/3/4 193/3/4
f 191/3/4 192/3/4 193/3/4
f 192/1/4 187/1/4 194/1/4
f 193/3/4 192/3/4 194/3/4
f 194/1/4 187/1/4 195/1/4
f 189/3/4 193/3/4 196/3/4
f 193/1/4 194/1/4 196/1/4
f 194/3/4 195/3/4 197/3/4
f 196/1/4 194/1/4 197/1/4
f 195/1/4 187/1/4 198/1/4
f 197/3/4 195/3/4 198/3/4
f 196/3/4 197/3/4 199/3/4
f 189/3/4 196/3/4 199/3/4
f 197/1/4 198/1/4 200/1/4
f 199/3/4 197/3/4 200/3/4
f 186/1/4 189/1/4 201/1/4
f 189/3/4 199/3/4 201/3/4
f 199/1/4 200/1/4 202/1/4
f 201/3/4 199/3/4 202/3/4
f 186/1/4 201/1/4 204/1/4
f 201/1/4 202/1/4 204/1/4
f 187/4/4 188/4/4 205/4/4
f 200/1/4 198/1/4 205/1/4
f 204/1/4 202/1/4 205/1/4
f 198/1/4 187/1/4 205/1/4
f 202/1/4 200/1/4 205/1/4
f 205/4/4 188/4/4 206/4/4
f 203/4/4 204/4/4 207/4/4
f 204/1/4 205/1/4 208/1/4
f 207/4/4 204/4/4 208/4/4
f 208/1/4 205/1/4 209/1/4
f 209/1/4 205/1/4 210/1/4
f 205/2/4 206/2/4 211/2/4
f 210/1/4 205/1/4 211/1/4
f 211/2/4 206/2/4 212/2/4
f 209/4/4 210/4/4 213/4/4
f 213/4/4 210/4/4 214/4/4
f 219/4/5 216/4/5 215/4/5
f 220/4/5 216/4/5 219/4/5
f 221/4/5 218/4/5 217/4/5
f 222/4/5 218/4/5 221/4/5
f 227/4/5 224/4/5 223/4/5
f 228/4/5 224/4/5 227/4/5
f 229/4/5 226/4/5 225/4/5
f 230/4/5 226/4/5 229/4/5
f 234/1/5 232/1/5 231/1/5
f 235/1/5 232/1/5 234/1/5
f 237/1/5 234/1/5 233/1/5
f 237/1/5 236/1/5 235/1/5
f 237/1/5 235/1/5 234/1/5
f 238/1/5 236/1/5 237/1/5
f 239/1/5 236/1/5 238/1/5
f 240/1/5 236/1/5 239/1/5
f 241/1/5 239/1/5 238/1/5
f 242/1/5 239/1/5 241/1/5
f 247/4/5 244/4/5 243/4/5
f 248/4/5 244/4/5 247/4/5
f 249/4/5 246/4/5 245/4/5
f 250/4/5 246/4/5 249/4/5
f 251/4/6 252/4/6 255/4/6
f 253/4/6 254/4/6 256/4/6
f 251/4/6 255/4/6 257/4/6
f 257/4/6 255/4/6 258/4/6
f 256/4/6 254/4/6 259/4/6
f 259/4/6 254/4/6 260/4/6
f 261/2/6 262/2/6 265/2/6
f 262/4/6 263/4/6 266/4/6
f 265/2/6 262/2/6 266/2/6
f 263/2/6 264/2/6 267/2/6
f 266/4/6 263/4/6 267/4/6
f 267/2/6 264/2/6 268/2/6
f 269/2/6 270/2/6 273/2/6
f 270/4/6 271/4/6 274/4/6
f 273/2/6 270/2/6 274/2/6
f 271/2/6 272/2/6 275/2/6
f 274/4/6 271/4/6 275/4/6
f 275/2/6 272/2/6 276/2/6
f 277/2/6 278/2/6 281/2/6
f 278/4/6 279/4/6 282/4/6
f 281/2/6 278/2/6 282/2/6
f 279/2/6 280/2/6 283/2/6
f 282/4/6 279/4/6 283/4/6
f 283/2/6 280/2/6 284/2/6
f 285/2/6 286/2/6 289/2/6
f 286/4/6 287/4/6 290/4/6
f 289/2/6 286/2/6 290/2/6
f 287/2/6 288/2/6 291/2/6
f 290/4/6 287/4/6 291/4/6
f 291/2/6 288/2/6 292/2/6
f 293/2/6 294/2/6 297/2/6
f 294/4/6 295/4/6 298/4/6
f 297/2/6 294/2/6 298/2/6
f 295/2/6 296/2/6 299/2/6
f 298/4/6 295/4/6 299/4/6
f 299/2/6 296/2/6 300/2/6
f 301/2/6 302/2/6 305/2/6
f 302/4/6 303/4/6 306/4/6
f 305/2/6 302/2/6 306/2/6
f 303/2/6 304/2/6 307/2/6
f 306/4/6 303/4/6 307/4/6
f 307/2/6 304/2/6 308/2/6
